<svg xmlns="http://www.w3.org/2000/svg" version="1.1" xmlns:xlink="http://www.w3.org/1999/xlink" xmlns:svgjs="http://svgjs.com/svgjs" width="1440" height="560" preserveAspectRatio="none" viewBox="0 0 1440 560"><g mask="url(&quot;#SvgjsMask1028&quot;)" fill="none"><path d="M487.6 413.6 a152.35 152.35 0 1 0 304.7 0 a152.35 152.35 0 1 0 -304.7 0z" fill="rgba(238, 78, 52, 0.22)" class="triangle-float1"></path><path d="M-13.872,175.737C2.341,175.376,14.671,162.148,21.692,147.529C27.78,134.853,25.677,120.399,18.516,108.297C11.506,96.451,-0.135,88.308,-13.872,87.428C-29.416,86.432,-46.121,90.402,-54.349,103.627C-62.954,117.458,-60.259,134.971,-52.286,149.175C-44.119,163.725,-30.554,176.108,-13.872,175.737" fill="rgba(238, 78, 52, 0.22)" class="triangle-float1"></path><path d="M87.97 144.89 a164.8 164.8 0 1 0 329.6 0 a164.8 164.8 0 1 0 -329.6 0z" fill="rgba(238, 78, 52, 0.22)" class="triangle-float1"></path><path d="M885.1092884219812 142.2426079209265L913.1402802506402 44.83737050899455 826.8080268293559 64.76874169216016z" fill="rgba(238, 78, 52, 0.22)" class="triangle-float3"></path><path d="M707.68 262.62 a120.47 120.47 0 1 0 240.94 0 a120.47 120.47 0 1 0 -240.94 0z" fill="rgba(238, 78, 52, 0.22)" class="triangle-float2"></path><path d="M79.794,264.325C107.562,264.285,133.496,250.272,147.617,226.362C161.982,202.038,164.923,170.571,148.905,147.303C134.36,126.175,105.445,127.697,79.794,127.842C54.526,127.985,26.381,127.285,12.024,148.078C-3.908,171.151,-2.493,202.337,11.629,226.56C25.651,250.612,51.953,264.365,79.794,264.325" fill="rgba(238, 78, 52, 0.22)" class="triangle-float2"></path><path d="M1357.943362391612 580.4891623671924L1487.095317284362 596.3470284384505 1373.80122846287 451.33720747444244z" fill="rgba(238, 78, 52, 0.22)" class="triangle-float1"></path><path d="M1226.2445977123493 394.0199042789337L1190.105908856076 267.98931878009415 1064.0753233572366 304.1280076363674 1100.2140122135097 430.15859313520696z" fill="rgba(238, 78, 52, 0.22)" class="triangle-float2"></path><path d="M927.990205033633 54.06885964888701L938.4726720124909 120.25255141418225 1032.5069761710047 71.43700506324774z" fill="rgba(238, 78, 52, 0.22)" class="triangle-float1"></path></g><defs><mask id="SvgjsMask1028"><rect width="1440" height="560" fill="#ffffff"></rect></mask><style>
            @keyframes float1 {
                0%{transform: translate(0, 0)}
                50%{transform: translate(-10px, 0)}
                100%{transform: translate(0, 0)}
            }

            .triangle-float1 {
                animation: float1 5s infinite;
            }

            @keyframes float2 {
                0%{transform: translate(0, 0)}
                50%{transform: translate(-5px, -5px)}
                100%{transform: translate(0, 0)}
            }

            .triangle-float2 {
                animation: float2 4s infinite;
            }

            @keyframes float3 {
                0%{transform: translate(0, 0)}
                50%{transform: translate(0, -10px)}
                100%{transform: translate(0, 0)}
            }

            .triangle-float3 {
                animation: float3 6s infinite;
            }
        </style></defs></svg>