<svg xmlns="http://www.w3.org/2000/svg" version="1.1" xmlns:xlink="http://www.w3.org/1999/xlink" xmlns:svgjs="http://svgjs.com/svgjs" width="1440" height="560" preserveAspectRatio="none" viewBox="0 0 1440 560"><g mask="url(&quot;#SvgjsMask1039&quot;)" fill="none"><rect width="1440" height="560" x="0" y="0" fill="rgba(255, 255, 255, 1)"></rect><path d="M-38.59 369.68L-38.59 369.68" stroke="rgba(252, 237, 218, 1)" stroke-width="1.5"></path><path d="M-38.59 369.68L-94.24 517.95" stroke="rgba(252, 237, 218, 1)" stroke-width="1.5"></path><path d="M-38.59 369.68L247.04 389.57" stroke="rgba(252, 237, 218, 1)" stroke-width="1.5"></path><path d="M-38.59 369.68L224.92 535.63" stroke="rgba(252, 237, 218, 1)" stroke-width="1.5"></path><path d="M-94.24 517.95L-94.24 517.95" stroke="rgba(252, 237, 218, 1)" stroke-width="1.5"></path><path d="M-94.24 517.95L-56.99 708.98" stroke="rgba(252, 237, 218, 1)" stroke-width="1.5"></path><path d="M-94.24 517.95L101.69 678.39" stroke="rgba(252, 237, 218, 1)" stroke-width="1.5"></path><path d="M-94.24 517.95L224.92 535.63" stroke="rgba(252, 237, 218, 1)" stroke-width="1.5"></path><path d="M-94.24 517.95L247.04 389.57" stroke="rgba(252, 237, 218, 1)" stroke-width="1.5"></path><path d="M-94.24 517.95L378.19 700.73" stroke="rgba(252, 237, 218, 1)" stroke-width="1.5"></path><path d="M-56.99 708.98L-56.99 708.98" stroke="rgba(252, 237, 218, 1)" stroke-width="1.5"></path><path d="M-56.99 708.98L101.69 678.39" stroke="rgba(252, 237, 218, 1)" stroke-width="1.5"></path><path d="M101.69 678.39L101.69 678.39" stroke="rgba(252, 237, 218, 1)" stroke-width="1.5"></path><path d="M101.69 678.39L224.92 535.63" stroke="rgba(252, 237, 218, 1)" stroke-width="1.5"></path><path d="M101.69 678.39L378.19 700.73" stroke="rgba(252, 237, 218, 1)" stroke-width="1.5"></path><path d="M101.69 678.39L247.04 389.57" stroke="rgba(252, 237, 218, 1)" stroke-width="1.5"></path><path d="M101.69 678.39L-38.59 369.68" stroke="rgba(252, 237, 218, 1)" stroke-width="1.5"></path><path d="M247.04 389.57L247.04 389.57" stroke="rgba(252, 237, 218, 1)" stroke-width="1.5"></path><path d="M247.04 389.57L224.92 535.63" stroke="rgba(252, 237, 218, 1)" stroke-width="1.5"></path><path d="M247.04 389.57L403.96 339.05" stroke="rgba(252, 237, 218, 1)" stroke-width="1.5"></path><path d="M247.04 389.57L490.85 488.74" stroke="rgba(252, 237, 218, 1)" stroke-width="1.5"></path><path d="M247.04 389.57L524.38 351.57" stroke="rgba(252, 237, 218, 1)" stroke-width="1.5"></path><path d="M224.92 535.63L224.92 535.63" stroke="rgba(252, 237, 218, 1)" stroke-width="1.5"></path><path d="M403.96 339.05L403.96 339.05" stroke="rgba(252, 237, 218, 1)" stroke-width="1.5"></path><path d="M403.96 339.05L524.38 351.57" stroke="rgba(252, 237, 218, 1)" stroke-width="1.5"></path><path d="M403.96 339.05L490.85 488.74" stroke="rgba(252, 237, 218, 1)" stroke-width="1.5"></path><path d="M403.96 339.05L653.55 358.26" stroke="rgba(252, 237, 218, 1)" stroke-width="1.5"></path><path d="M378.19 700.73L378.19 700.73" stroke="rgba(252, 237, 218, 1)" stroke-width="1.5"></path><path d="M378.19 700.73L519.09 708.63" stroke="rgba(252, 237, 218, 1)" stroke-width="1.5"></path><path d="M378.19 700.73L224.92 535.63" stroke="rgba(252, 237, 218, 1)" stroke-width="1.5"></path><path d="M378.19 700.73L490.85 488.74" stroke="rgba(252, 237, 218, 1)" stroke-width="1.5"></path><path d="M378.19 700.73L693.69 696.02" stroke="rgba(252, 237, 218, 1)" stroke-width="1.5"></path><path d="M524.38 351.57L524.38 351.57" stroke="rgba(252, 237, 218, 1)" stroke-width="1.5"></path><path d="M524.38 351.57L653.55 358.26" stroke="rgba(252, 237, 218, 1)" stroke-width="1.5"></path><path d="M490.85 488.74L490.85 488.74" stroke="rgba(252, 237, 218, 1)" stroke-width="1.5"></path><path d="M490.85 488.74L524.38 351.57" stroke="rgba(252, 237, 218, 1)" stroke-width="1.5"></path><path d="M490.85 488.74L639.98 499.69" stroke="rgba(252, 237, 218, 1)" stroke-width="1.5"></path><path d="M490.85 488.74L653.55 358.26" stroke="rgba(252, 237, 218, 1)" stroke-width="1.5"></path><path d="M490.85 488.74L519.09 708.63" stroke="rgba(252, 237, 218, 1)" stroke-width="1.5"></path><path d="M519.09 708.63L519.09 708.63" stroke="rgba(252, 237, 218, 1)" stroke-width="1.5"></path><path d="M519.09 708.63L693.69 696.02" stroke="rgba(252, 237, 218, 1)" stroke-width="1.5"></path><path d="M519.09 708.63L639.98 499.69" stroke="rgba(252, 237, 218, 1)" stroke-width="1.5"></path><path d="M519.09 708.63L804.77 641.34" stroke="rgba(252, 237, 218, 1)" stroke-width="1.5"></path><path d="M519.09 708.63L795.66 556.54" stroke="rgba(252, 237, 218, 1)" stroke-width="1.5"></path><path d="M652.88 250.49L652.88 250.49" stroke="rgba(252, 237, 218, 1)" stroke-width="1.5"></path><path d="M652.88 250.49L653.55 358.26" stroke="rgba(252, 237, 218, 1)" stroke-width="1.5"></path><path d="M652.88 250.49L524.38 351.57" stroke="rgba(252, 237, 218, 1)" stroke-width="1.5"></path><path d="M652.88 250.49L826.35 210.14" stroke="rgba(252, 237, 218, 1)" stroke-width="1.5"></path><path d="M652.88 250.49L824.8 407.09" stroke="rgba(252, 237, 218, 1)" stroke-width="1.5"></path><path d="M653.55 358.26L653.55 358.26" stroke="rgba(252, 237, 218, 1)" stroke-width="1.5"></path><path d="M639.98 499.69L639.98 499.69" stroke="rgba(252, 237, 218, 1)" stroke-width="1.5"></path><path d="M639.98 499.69L653.55 358.26" stroke="rgba(252, 237, 218, 1)" stroke-width="1.5"></path><path d="M693.69 696.02L693.69 696.02" stroke="rgba(252, 237, 218, 1)" stroke-width="1.5"></path><path d="M693.69 696.02L804.77 641.34" stroke="rgba(252, 237, 218, 1)" stroke-width="1.5"></path><path d="M693.69 696.02L795.66 556.54" stroke="rgba(252, 237, 218, 1)" stroke-width="1.5"></path><path d="M826.35 210.14L826.35 210.14" stroke="rgba(252, 237, 218, 1)" stroke-width="1.5"></path><path d="M826.35 210.14L1007.94 252.65" stroke="rgba(252, 237, 218, 1)" stroke-width="1.5"></path><path d="M824.8 407.09L824.8 407.09" stroke="rgba(252, 237, 218, 1)" stroke-width="1.5"></path><path d="M824.8 407.09L795.66 556.54" stroke="rgba(252, 237, 218, 1)" stroke-width="1.5"></path><path d="M824.8 407.09L991.85 397.35" stroke="rgba(252, 237, 218, 1)" stroke-width="1.5"></path><path d="M824.8 407.09L653.55 358.26" stroke="rgba(252, 237, 218, 1)" stroke-width="1.5"></path><path d="M824.8 407.09L826.35 210.14" stroke="rgba(252, 237, 218, 1)" stroke-width="1.5"></path><path d="M795.66 556.54L795.66 556.54" stroke="rgba(252, 237, 218, 1)" stroke-width="1.5"></path><path d="M795.66 556.54L804.77 641.34" stroke="rgba(252, 237, 218, 1)" stroke-width="1.5"></path><path d="M804.77 641.34L804.77 641.34" stroke="rgba(252, 237, 218, 1)" stroke-width="1.5"></path><path d="M804.77 641.34L1001.71 681.02" stroke="rgba(252, 237, 218, 1)" stroke-width="1.5"></path><path d="M968.99 -108.03L968.99 -108.03" stroke="rgba(252, 237, 218, 1)" stroke-width="1.5"></path><path d="M968.99 -108.03L1146.9 -52.61" stroke="rgba(252, 237, 218, 1)" stroke-width="1.5"></path><path d="M968.99 -108.03L1109.92 72.02" stroke="rgba(252, 237, 218, 1)" stroke-width="1.5"></path><path d="M1007.94 252.65L1007.94 252.65" stroke="rgba(252, 237, 218, 1)" stroke-width="1.5"></path><path d="M1007.94 252.65L1146.92 210.48" stroke="rgba(252, 237, 218, 1)" stroke-width="1.5"></path><path d="M1007.94 252.65L991.85 397.35" stroke="rgba(252, 237, 218, 1)" stroke-width="1.5"></path><path d="M1007.94 252.65L1125.56 379.8" stroke="rgba(252, 237, 218, 1)" stroke-width="1.5"></path><path d="M1007.94 252.65L1109.92 72.02" stroke="rgba(252, 237, 218, 1)" stroke-width="1.5"></path><path d="M991.85 397.35L991.85 397.35" stroke="rgba(252, 237, 218, 1)" stroke-width="1.5"></path><path d="M991.85 397.35L1000.31 519.86" stroke="rgba(252, 237, 218, 1)" stroke-width="1.5"></path><path d="M991.85 397.35L1125.56 379.8" stroke="rgba(252, 237, 218, 1)" stroke-width="1.5"></path><path d="M991.85 397.35L1121.62 501.39" stroke="rgba(252, 237, 218, 1)" stroke-width="1.5"></path><path d="M991.85 397.35L1146.92 210.48" stroke="rgba(252, 237, 218, 1)" stroke-width="1.5"></path><path d="M1000.31 519.86L1000.31 519.86" stroke="rgba(252, 237, 218, 1)" stroke-width="1.5"></path><path d="M1000.31 519.86L1121.62 501.39" stroke="rgba(252, 237, 218, 1)" stroke-width="1.5"></path><path d="M1001.71 681.02L1001.71 681.02" stroke="rgba(252, 237, 218, 1)" stroke-width="1.5"></path><path d="M1001.71 681.02L1140.78 685.16" stroke="rgba(252, 237, 218, 1)" stroke-width="1.5"></path><path d="M1001.71 681.02L1000.31 519.86" stroke="rgba(252, 237, 218, 1)" stroke-width="1.5"></path><path d="M1146.9 -52.61L1146.9 -52.61" stroke="rgba(252, 237, 218, 1)" stroke-width="1.5"></path><path d="M1146.9 -52.61L1257.7 -92.9" stroke="rgba(252, 237, 218, 1)" stroke-width="1.5"></path><path d="M1146.9 -52.61L1109.92 72.02" stroke="rgba(252, 237, 218, 1)" stroke-width="1.5"></path><path d="M1146.9 -52.61L1303.56 102.68" stroke="rgba(252, 237, 218, 1)" stroke-width="1.5"></path><path d="M1146.9 -52.61L1146.92 210.48" stroke="rgba(252, 237, 218, 1)" stroke-width="1.5"></path><path d="M1146.9 -52.61L1279.86 196.91" stroke="rgba(252, 237, 218, 1)" stroke-width="1.5"></path><path d="M1109.92 72.02L1109.92 72.02" stroke="rgba(252, 237, 218, 1)" stroke-width="1.5"></path><path d="M1109.92 72.02L1146.92 210.48" stroke="rgba(252, 237, 218, 1)" stroke-width="1.5"></path><path d="M1109.92 72.02L1303.56 102.68" stroke="rgba(252, 237, 218, 1)" stroke-width="1.5"></path><path d="M1146.92 210.48L1146.92 210.48" stroke="rgba(252, 237, 218, 1)" stroke-width="1.5"></path><path d="M1146.92 210.48L1279.86 196.91" stroke="rgba(252, 237, 218, 1)" stroke-width="1.5"></path><path d="M1125.56 379.8L1125.56 379.8" stroke="rgba(252, 237, 218, 1)" stroke-width="1.5"></path><path d="M1125.56 379.8L1245.72 381.62" stroke="rgba(252, 237, 218, 1)" stroke-width="1.5"></path><path d="M1125.56 379.8L1121.62 501.39" stroke="rgba(252, 237, 218, 1)" stroke-width="1.5"></path><path d="M1121.62 501.39L1121.62 501.39" stroke="rgba(252, 237, 218, 1)" stroke-width="1.5"></path><path d="M1140.78 685.16L1140.78 685.16" stroke="rgba(252, 237, 218, 1)" stroke-width="1.5"></path><path d="M1140.78 685.16L1286.78 684.04" stroke="rgba(252, 237, 218, 1)" stroke-width="1.5"></path><path d="M1140.78 685.16L1121.62 501.39" stroke="rgba(252, 237, 218, 1)" stroke-width="1.5"></path><path d="M1257.7 -92.9L1257.7 -92.9" stroke="rgba(252, 237, 218, 1)" stroke-width="1.5"></path><path d="M1257.7 -92.9L1433.91 -60.21" stroke="rgba(252, 237, 218, 1)" stroke-width="1.5"></path><path d="M1257.7 -92.9L1303.56 102.68" stroke="rgba(252, 237, 218, 1)" stroke-width="1.5"></path><path d="M1257.7 -92.9L1109.92 72.02" stroke="rgba(252, 237, 218, 1)" stroke-width="1.5"></path><path d="M1257.7 -92.9L1453.05 41.7" stroke="rgba(252, 237, 218, 1)" stroke-width="1.5"></path><path d="M1257.7 -92.9L968.99 -108.03" stroke="rgba(252, 237, 218, 1)" stroke-width="1.5"></path><path d="M1303.56 102.68L1303.56 102.68" stroke="rgba(252, 237, 218, 1)" stroke-width="1.5"></path><path d="M1303.56 102.68L1279.86 196.91" stroke="rgba(252, 237, 218, 1)" stroke-width="1.5"></path><path d="M1303.56 102.68L1425.99 193.09" stroke="rgba(252, 237, 218, 1)" stroke-width="1.5"></path><path d="M1303.56 102.68L1453.05 41.7" stroke="rgba(252, 237, 218, 1)" stroke-width="1.5"></path><path d="M1303.56 102.68L1146.92 210.48" stroke="rgba(252, 237, 218, 1)" stroke-width="1.5"></path><path d="M1279.86 196.91L1279.86 196.91" stroke="rgba(252, 237, 218, 1)" stroke-width="1.5"></path><path d="M1279.86 196.91L1425.99 193.09" stroke="rgba(252, 237, 218, 1)" stroke-width="1.5"></path><path d="M1279.86 196.91L1245.72 381.62" stroke="rgba(252, 237, 218, 1)" stroke-width="1.5"></path><path d="M1279.86 196.91L1109.92 72.02" stroke="rgba(252, 237, 218, 1)" stroke-width="1.5"></path><path d="M1245.72 381.62L1245.72 381.62" stroke="rgba(252, 237, 218, 1)" stroke-width="1.5"></path><path d="M1245.72 381.62L1267.69 508.53" stroke="rgba(252, 237, 218, 1)" stroke-width="1.5"></path><path d="M1245.72 381.62L1395.8 411.27" stroke="rgba(252, 237, 218, 1)" stroke-width="1.5"></path><path d="M1245.72 381.62L1121.62 501.39" stroke="rgba(252, 237, 218, 1)" stroke-width="1.5"></path><path d="M1245.72 381.62L1146.92 210.48" stroke="rgba(252, 237, 218, 1)" stroke-width="1.5"></path><path d="M1267.69 508.53L1267.69 508.53" stroke="rgba(252, 237, 218, 1)" stroke-width="1.5"></path><path d="M1267.69 508.53L1121.62 501.39" stroke="rgba(252, 237, 218, 1)" stroke-width="1.5"></path><path d="M1267.69 508.53L1395.8 411.27" stroke="rgba(252, 237, 218, 1)" stroke-width="1.5"></path><path d="M1267.69 508.53L1286.78 684.04" stroke="rgba(252, 237, 218, 1)" stroke-width="1.5"></path><path d="M1267.69 508.53L1448.92 537.74" stroke="rgba(252, 237, 218, 1)" stroke-width="1.5"></path><path d="M1286.78 684.04L1286.78 684.04" stroke="rgba(252, 237, 218, 1)" stroke-width="1.5"></path><path d="M1433.91 -60.21L1433.91 -60.21" stroke="rgba(252, 237, 218, 1)" stroke-width="1.5"></path><path d="M1433.91 -60.21L1453.05 41.7" stroke="rgba(252, 237, 218, 1)" stroke-width="1.5"></path><path d="M1433.91 -60.21L1582.76 -71.16" stroke="rgba(252, 237, 218, 1)" stroke-width="1.5"></path><path d="M1433.91 -60.21L1551.79 77.35" stroke="rgba(252, 237, 218, 1)" stroke-width="1.5"></path><path d="M1453.05 41.7L1453.05 41.7" stroke="rgba(252, 237, 218, 1)" stroke-width="1.5"></path><path d="M1453.05 41.7L1551.79 77.35" stroke="rgba(252, 237, 218, 1)" stroke-width="1.5"></path><path d="M1453.05 41.7L1425.99 193.09" stroke="rgba(252, 237, 218, 1)" stroke-width="1.5"></path><path d="M1425.99 193.09L1425.99 193.09" stroke="rgba(252, 237, 218, 1)" stroke-width="1.5"></path><path d="M1425.99 193.09L1587.73 191.64" stroke="rgba(252, 237, 218, 1)" stroke-width="1.5"></path><path d="M1425.99 193.09L1551.79 77.35" stroke="rgba(252, 237, 218, 1)" stroke-width="1.5"></path><path d="M1395.8 411.27L1395.8 411.27" stroke="rgba(252, 237, 218, 1)" stroke-width="1.5"></path><path d="M1395.8 411.27L1448.92 537.74" stroke="rgba(252, 237, 218, 1)" stroke-width="1.5"></path><path d="M1395.8 411.27L1592.31 391.64" stroke="rgba(252, 237, 218, 1)" stroke-width="1.5"></path><path d="M1448.92 537.74L1448.92 537.74" stroke="rgba(252, 237, 218, 1)" stroke-width="1.5"></path><path d="M1448.92 537.74L1579.2 529.85" stroke="rgba(252, 237, 218, 1)" stroke-width="1.5"></path><path d="M1448.92 537.74L1580.55 663.57" stroke="rgba(252, 237, 218, 1)" stroke-width="1.5"></path><path d="M1448.92 537.74L1592.31 391.64" stroke="rgba(252, 237, 218, 1)" stroke-width="1.5"></path><path d="M1448.92 537.74L1286.78 684.04" stroke="rgba(252, 237, 218, 1)" stroke-width="1.5"></path><path d="M1582.76 -71.16L1582.76 -71.16" stroke="rgba(252, 237, 218, 1)" stroke-width="1.5"></path><path d="M1582.76 -71.16L1551.79 77.35" stroke="rgba(252, 237, 218, 1)" stroke-width="1.5"></path><path d="M1582.76 -71.16L1453.05 41.7" stroke="rgba(252, 237, 218, 1)" stroke-width="1.5"></path><path d="M1582.76 -71.16L1587.73 191.64" stroke="rgba(252, 237, 218, 1)" stroke-width="1.5"></path><path d="M1582.76 -71.16L1425.99 193.09" stroke="rgba(252, 237, 218, 1)" stroke-width="1.5"></path><path d="M1551.79 77.35L1551.79 77.35" stroke="rgba(252, 237, 218, 1)" stroke-width="1.5"></path><path d="M1551.79 77.35L1587.73 191.64" stroke="rgba(252, 237, 218, 1)" stroke-width="1.5"></path><path d="M1587.73 191.64L1587.73 191.64" stroke="rgba(252, 237, 218, 1)" stroke-width="1.5"></path><path d="M1587.73 191.64L1592.31 391.64" stroke="rgba(252, 237, 218, 1)" stroke-width="1.5"></path><path d="M1587.73 191.64L1453.05 41.7" stroke="rgba(252, 237, 218, 1)" stroke-width="1.5"></path><path d="M1592.31 391.64L1592.31 391.64" stroke="rgba(252, 237, 218, 1)" stroke-width="1.5"></path><path d="M1592.31 391.64L1579.2 529.85" stroke="rgba(252, 237, 218, 1)" stroke-width="1.5"></path><path d="M1579.2 529.85L1579.2 529.85" stroke="rgba(252, 237, 218, 1)" stroke-width="1.5"></path><path d="M1579.2 529.85L1580.55 663.57" stroke="rgba(252, 237, 218, 1)" stroke-width="1.5"></path><path d="M1580.55 663.57L1580.55 663.57" stroke="rgba(252, 237, 218, 1)" stroke-width="1.5"></path><circle r="5" cx="-38.59" cy="369.68" fill="rgba(252, 237, 218, 1)"></circle><circle r="5" cx="-94.24" cy="517.95" fill="rgba(252, 237, 218, 1)"></circle><circle r="5" cx="-56.99" cy="708.98" fill="rgba(252, 237, 218, 1)"></circle><circle r="5" cx="101.69" cy="678.39" fill="rgba(252, 237, 218, 1)"></circle><circle r="5" cx="247.04" cy="389.57" fill="rgba(252, 237, 218, 1)"></circle><circle r="5" cx="224.92" cy="535.63" fill="rgba(252, 237, 218, 1)"></circle><circle r="5" cx="403.96" cy="339.05" fill="rgba(252, 237, 218, 1)"></circle><circle r="5" cx="378.19" cy="700.73" fill="rgba(252, 237, 218, 1)"></circle><circle r="5" cx="524.38" cy="351.57" fill="rgba(252, 237, 218, 1)"></circle><circle r="5" cx="490.85" cy="488.74" fill="rgba(252, 237, 218, 1)"></circle><circle r="5" cx="519.09" cy="708.63" fill="rgba(252, 237, 218, 1)"></circle><circle r="5" cx="652.88" cy="250.49" fill="rgba(252, 237, 218, 1)"></circle><circle r="5" cx="653.55" cy="358.26" fill="rgba(252, 237, 218, 1)"></circle><circle r="5" cx="639.98" cy="499.69" fill="rgba(252, 237, 218, 1)"></circle><circle r="5" cx="693.69" cy="696.02" fill="rgba(252, 237, 218, 1)"></circle><circle r="5" cx="826.35" cy="210.14" fill="rgba(252, 237, 218, 1)"></circle><circle r="5" cx="824.8" cy="407.09" fill="rgba(252, 237, 218, 1)"></circle><circle r="5" cx="795.66" cy="556.54" fill="rgba(252, 237, 218, 1)"></circle><circle r="5" cx="804.77" cy="641.34" fill="rgba(252, 237, 218, 1)"></circle><circle r="5" cx="968.99" cy="-108.03" fill="rgba(252, 237, 218, 1)"></circle><circle r="5" cx="1007.94" cy="252.65" fill="rgba(252, 237, 218, 1)"></circle><circle r="5" cx="991.85" cy="397.35" fill="rgba(252, 237, 218, 1)"></circle><circle r="5" cx="1000.31" cy="519.86" fill="rgba(252, 237, 218, 1)"></circle><circle r="5" cx="1001.71" cy="681.02" fill="rgba(252, 237, 218, 1)"></circle><circle r="5" cx="1146.9" cy="-52.61" fill="rgba(252, 237, 218, 1)"></circle><circle r="5" cx="1109.92" cy="72.02" fill="rgba(252, 237, 218, 1)"></circle><circle r="5" cx="1146.92" cy="210.48" fill="rgba(252, 237, 218, 1)"></circle><circle r="5" cx="1125.56" cy="379.8" fill="rgba(252, 237, 218, 1)"></circle><circle r="5" cx="1121.62" cy="501.39" fill="rgba(252, 237, 218, 1)"></circle><circle r="5" cx="1140.78" cy="685.16" fill="rgba(252, 237, 218, 1)"></circle><circle r="5" cx="1257.7" cy="-92.9" fill="rgba(252, 237, 218, 1)"></circle><circle r="5" cx="1303.56" cy="102.68" fill="rgba(252, 237, 218, 1)"></circle><circle r="5" cx="1279.86" cy="196.91" fill="rgba(252, 237, 218, 1)"></circle><circle r="5" cx="1245.72" cy="381.62" fill="rgba(252, 237, 218, 1)"></circle><circle r="5" cx="1267.69" cy="508.53" fill="rgba(252, 237, 218, 1)"></circle><circle r="5" cx="1286.78" cy="684.04" fill="rgba(252, 237, 218, 1)"></circle><circle r="5" cx="1433.91" cy="-60.21" fill="rgba(252, 237, 218, 1)"></circle><circle r="5" cx="1453.05" cy="41.7" fill="rgba(252, 237, 218, 1)"></circle><circle r="5" cx="1425.99" cy="193.09" fill="rgba(252, 237, 218, 1)"></circle><circle r="5" cx="1395.8" cy="411.27" fill="rgba(252, 237, 218, 1)"></circle><circle r="5" cx="1448.92" cy="537.74" fill="rgba(252, 237, 218, 1)"></circle><circle r="5" cx="1582.76" cy="-71.16" fill="rgba(252, 237, 218, 1)"></circle><circle r="5" cx="1551.79" cy="77.35" fill="rgba(252, 237, 218, 1)"></circle><circle r="5" cx="1587.73" cy="191.64" fill="rgba(252, 237, 218, 1)"></circle><circle r="5" cx="1592.31" cy="391.64" fill="rgba(252, 237, 218, 1)"></circle><circle r="5" cx="1579.2" cy="529.85" fill="rgba(252, 237, 218, 1)"></circle><circle r="5" cx="1580.55" cy="663.57" fill="rgba(252, 237, 218, 1)"></circle><path d="M411.6 547.23L411.6 547.23" stroke="hsl(8.399999999999977, 84.5%, 73.9%)" stroke-width="1.5"></path><path d="M411.6 547.23L362.18 678.33" stroke="hsl(8.399999999999977, 84.5%, 73.9%)" stroke-width="1.5"></path><path d="M411.6 547.23L552.57 514.05" stroke="hsl(8.399999999999977, 84.5%, 73.9%)" stroke-width="1.5"></path><path d="M411.6 547.23L489.66 704" stroke="hsl(8.399999999999977, 84.5%, 73.9%)" stroke-width="1.5"></path><path d="M489.66 704L489.66 704" stroke="hsl(8.399999999999977, 84.5%, 73.9%)" stroke-width="1.5"></path><path d="M489.66 704L362.18 678.33" stroke="hsl(8.399999999999977, 84.5%, 73.9%)" stroke-width="1.5"></path><path d="M489.66 704L552.57 514.05" stroke="hsl(8.399999999999977, 84.5%, 73.9%)" stroke-width="1.5"></path><path d="M489.66 704L707.42 641.02" stroke="hsl(8.399999999999977, 84.5%, 73.9%)" stroke-width="1.5"></path><path d="M489.66 704L646.32 533.51" stroke="hsl(8.399999999999977, 84.5%, 73.9%)" stroke-width="1.5"></path><path d="M838.95 697.96L838.95 697.96" stroke="hsl(8.399999999999977, 84.5%, 73.9%)" stroke-width="1.5"></path><path d="M838.95 697.96L981.72 705.2" stroke="hsl(8.399999999999977, 84.5%, 73.9%)" stroke-width="1.5"></path><path d="M838.95 697.96L707.42 641.02" stroke="hsl(8.399999999999977, 84.5%, 73.9%)" stroke-width="1.5"></path><path d="M838.95 697.96L835.17 523.21" stroke="hsl(8.399999999999977, 84.5%, 73.9%)" stroke-width="1.5"></path><path d="M838.95 697.96L999.98 514.98" stroke="hsl(8.399999999999977, 84.5%, 73.9%)" stroke-width="1.5"></path><path d="M838.95 697.96L646.32 533.51" stroke="hsl(8.399999999999977, 84.5%, 73.9%)" stroke-width="1.5"></path><path d="M838.95 697.96L1101.04 712.02" stroke="hsl(8.399999999999977, 84.5%, 73.9%)" stroke-width="1.5"></path><path d="M1304.02 -47.48L1304.02 -47.48" stroke="hsl(8.399999999999977, 84.5%, 73.9%)" stroke-width="1.5"></path><path d="M1304.02 -47.48L1422.17 -104.33" stroke="hsl(8.399999999999977, 84.5%, 73.9%)" stroke-width="1.5"></path><path d="M1304.02 -47.48L1273.88 81.21" stroke="hsl(8.399999999999977, 84.5%, 73.9%)" stroke-width="1.5"></path><path d="M1273.88 81.21L1273.88 81.21" stroke="hsl(8.399999999999977, 84.5%, 73.9%)" stroke-width="1.5"></path><path d="M1273.88 81.21L1158.15 90.52" stroke="hsl(8.399999999999977, 84.5%, 73.9%)" stroke-width="1.5"></path><path d="M1273.88 81.21L1448.95 65.62" stroke="hsl(8.399999999999977, 84.5%, 73.9%)" stroke-width="1.5"></path><path d="M1273.88 81.21L1244.68 260.8" stroke="hsl(8.399999999999977, 84.5%, 73.9%)" stroke-width="1.5"></path><path d="M1244.68 260.8L1244.68 260.8" stroke="hsl(8.399999999999977, 84.5%, 73.9%)" stroke-width="1.5"></path><path d="M1244.68 260.8L1283.71 384.03" stroke="hsl(8.399999999999977, 84.5%, 73.9%)" stroke-width="1.5"></path><path d="M1244.68 260.8L1094.45 252.24" stroke="hsl(8.399999999999977, 84.5%, 73.9%)" stroke-width="1.5"></path><path d="M1422.17 -104.33L1422.17 -104.33" stroke="hsl(8.399999999999977, 84.5%, 73.9%)" stroke-width="1.5"></path><path d="M1422.17 -104.33L1448.95 65.62" stroke="hsl(8.399999999999977, 84.5%, 73.9%)" stroke-width="1.5"></path><path d="M1422.17 -104.33L1608.67 -105.09" stroke="hsl(8.399999999999977, 84.5%, 73.9%)" stroke-width="1.5"></path><path d="M1561.8 76.43L1561.8 76.43" stroke="hsl(8.399999999999977, 84.5%, 73.9%)" stroke-width="1.5"></path><path d="M1561.8 76.43L1448.95 65.62" stroke="hsl(8.399999999999977, 84.5%, 73.9%)" stroke-width="1.5"></path><path d="M1561.8 76.43L1568.72 201.12" stroke="hsl(8.399999999999977, 84.5%, 73.9%)" stroke-width="1.5"></path><path d="M1561.8 76.43L1608.67 -105.09" stroke="hsl(8.399999999999977, 84.5%, 73.9%)" stroke-width="1.5"></path><path d="M1561.8 76.43L1435.34 220.88" stroke="hsl(8.399999999999977, 84.5%, 73.9%)" stroke-width="1.5"></path><path d="M1561.8 76.43L1422.17 -104.33" stroke="hsl(8.399999999999977, 84.5%, 73.9%)" stroke-width="1.5"></path><path d="M1561.8 76.43L1304.02 -47.48" stroke="hsl(8.399999999999977, 84.5%, 73.9%)" stroke-width="1.5"></path><path d="M-38.92 528.44L-38.92 528.44" stroke="hsl(8.399999999999977, 84.5%, 73.9%)" stroke-width="1.5"></path><path d="M-38.92 528.44L64.64 502.64" stroke="hsl(8.399999999999977, 84.5%, 73.9%)" stroke-width="1.5"></path><path d="M-38.92 528.44L-77.2 661.42" stroke="hsl(8.399999999999977, 84.5%, 73.9%)" stroke-width="1.5"></path><path d="M-38.92 528.44L204.65 688.79" stroke="hsl(8.399999999999977, 84.5%, 73.9%)" stroke-width="1.5"></path><path d="M-38.92 528.44L362.18 678.33" stroke="hsl(8.399999999999977, 84.5%, 73.9%)" stroke-width="1.5"></path><path d="M-38.92 528.44L411.6 547.23" stroke="hsl(8.399999999999977, 84.5%, 73.9%)" stroke-width="1.5"></path><path d="M-77.2 661.42L-77.2 661.42" stroke="hsl(8.399999999999977, 84.5%, 73.9%)" stroke-width="1.5"></path><path d="M-77.2 661.42L64.64 502.64" stroke="hsl(8.399999999999977, 84.5%, 73.9%)" stroke-width="1.5"></path><path d="M-77.2 661.42L204.65 688.79" stroke="hsl(8.399999999999977, 84.5%, 73.9%)" stroke-width="1.5"></path><path d="M-77.2 661.42L362.18 678.33" stroke="hsl(8.399999999999977, 84.5%, 73.9%)" stroke-width="1.5"></path><path d="M-77.2 661.42L411.6 547.23" stroke="hsl(8.399999999999977, 84.5%, 73.9%)" stroke-width="1.5"></path><path d="M64.64 502.64L64.64 502.64" stroke="hsl(8.399999999999977, 84.5%, 73.9%)" stroke-width="1.5"></path><path d="M64.64 502.64L204.65 688.79" stroke="hsl(8.399999999999977, 84.5%, 73.9%)" stroke-width="1.5"></path><path d="M64.64 502.64L362.18 678.33" stroke="hsl(8.399999999999977, 84.5%, 73.9%)" stroke-width="1.5"></path><path d="M204.65 688.79L204.65 688.79" stroke="hsl(8.399999999999977, 84.5%, 73.9%)" stroke-width="1.5"></path><path d="M204.65 688.79L362.18 678.33" stroke="hsl(8.399999999999977, 84.5%, 73.9%)" stroke-width="1.5"></path><path d="M204.65 688.79L411.6 547.23" stroke="hsl(8.399999999999977, 84.5%, 73.9%)" stroke-width="1.5"></path><path d="M204.65 688.79L489.66 704" stroke="hsl(8.399999999999977, 84.5%, 73.9%)" stroke-width="1.5"></path><path d="M362.18 678.33L362.18 678.33" stroke="hsl(8.399999999999977, 84.5%, 73.9%)" stroke-width="1.5"></path><path d="M552.57 514.05L552.57 514.05" stroke="hsl(8.399999999999977, 84.5%, 73.9%)" stroke-width="1.5"></path><path d="M552.57 514.05L646.32 533.51" stroke="hsl(8.399999999999977, 84.5%, 73.9%)" stroke-width="1.5"></path><path d="M552.57 514.05L707.42 641.02" stroke="hsl(8.399999999999977, 84.5%, 73.9%)" stroke-width="1.5"></path><path d="M552.57 514.05L362.18 678.33" stroke="hsl(8.399999999999977, 84.5%, 73.9%)" stroke-width="1.5"></path><path d="M552.57 514.05L790.31 377.12" stroke="hsl(8.399999999999977, 84.5%, 73.9%)" stroke-width="1.5"></path><path d="M646.32 533.51L646.32 533.51" stroke="hsl(8.399999999999977, 84.5%, 73.9%)" stroke-width="1.5"></path><path d="M646.32 533.51L707.42 641.02" stroke="hsl(8.399999999999977, 84.5%, 73.9%)" stroke-width="1.5"></path><path d="M646.32 533.51L835.17 523.21" stroke="hsl(8.399999999999977, 84.5%, 73.9%)" stroke-width="1.5"></path><path d="M646.32 533.51L790.31 377.12" stroke="hsl(8.399999999999977, 84.5%, 73.9%)" stroke-width="1.5"></path><path d="M646.32 533.51L411.6 547.23" stroke="hsl(8.399999999999977, 84.5%, 73.9%)" stroke-width="1.5"></path><path d="M707.42 641.02L707.42 641.02" stroke="hsl(8.399999999999977, 84.5%, 73.9%)" stroke-width="1.5"></path><path d="M707.42 641.02L835.17 523.21" stroke="hsl(8.399999999999977, 84.5%, 73.9%)" stroke-width="1.5"></path><path d="M790.31 377.12L790.31 377.12" stroke="hsl(8.399999999999977, 84.5%, 73.9%)" stroke-width="1.5"></path><path d="M790.31 377.12L835.17 523.21" stroke="hsl(8.399999999999977, 84.5%, 73.9%)" stroke-width="1.5"></path><path d="M790.31 377.12L957.95 387.76" stroke="hsl(8.399999999999977, 84.5%, 73.9%)" stroke-width="1.5"></path><path d="M790.31 377.12L999.98 514.98" stroke="hsl(8.399999999999977, 84.5%, 73.9%)" stroke-width="1.5"></path><path d="M835.17 523.21L835.17 523.21" stroke="hsl(8.399999999999977, 84.5%, 73.9%)" stroke-width="1.5"></path><path d="M957.95 387.76L957.95 387.76" stroke="hsl(8.399999999999977, 84.5%, 73.9%)" stroke-width="1.5"></path><path d="M957.95 387.76L999.98 514.98" stroke="hsl(8.399999999999977, 84.5%, 73.9%)" stroke-width="1.5"></path><path d="M999.98 514.98L999.98 514.98" stroke="hsl(8.399999999999977, 84.5%, 73.9%)" stroke-width="1.5"></path><path d="M999.98 514.98L1160.73 541.94" stroke="hsl(8.399999999999977, 84.5%, 73.9%)" stroke-width="1.5"></path><path d="M981.72 705.2L981.72 705.2" stroke="hsl(8.399999999999977, 84.5%, 73.9%)" stroke-width="1.5"></path><path d="M981.72 705.2L1101.04 712.02" stroke="hsl(8.399999999999977, 84.5%, 73.9%)" stroke-width="1.5"></path><path d="M981.72 705.2L999.98 514.98" stroke="hsl(8.399999999999977, 84.5%, 73.9%)" stroke-width="1.5"></path><path d="M981.72 705.2L835.17 523.21" stroke="hsl(8.399999999999977, 84.5%, 73.9%)" stroke-width="1.5"></path><path d="M981.72 705.2L1160.73 541.94" stroke="hsl(8.399999999999977, 84.5%, 73.9%)" stroke-width="1.5"></path><path d="M1158.15 90.52L1158.15 90.52" stroke="hsl(8.399999999999977, 84.5%, 73.9%)" stroke-width="1.5"></path><path d="M1158.15 90.52L1094.45 252.24" stroke="hsl(8.399999999999977, 84.5%, 73.9%)" stroke-width="1.5"></path><path d="M1158.15 90.52L1244.68 260.8" stroke="hsl(8.399999999999977, 84.5%, 73.9%)" stroke-width="1.5"></path><path d="M1158.15 90.52L1304.02 -47.48" stroke="hsl(8.399999999999977, 84.5%, 73.9%)" stroke-width="1.5"></path><path d="M1158.15 90.52L1448.95 65.62" stroke="hsl(8.399999999999977, 84.5%, 73.9%)" stroke-width="1.5"></path><path d="M1158.15 90.52L1150.25 395.55" stroke="hsl(8.399999999999977, 84.5%, 73.9%)" stroke-width="1.5"></path><path d="M1094.45 252.24L1094.45 252.24" stroke="hsl(8.399999999999977, 84.5%, 73.9%)" stroke-width="1.5"></path><path d="M1094.45 252.24L1150.25 395.55" stroke="hsl(8.399999999999977, 84.5%, 73.9%)" stroke-width="1.5"></path><path d="M1150.25 395.55L1150.25 395.55" stroke="hsl(8.399999999999977, 84.5%, 73.9%)" stroke-width="1.5"></path><path d="M1150.25 395.55L1283.71 384.03" stroke="hsl(8.399999999999977, 84.5%, 73.9%)" stroke-width="1.5"></path><path d="M1150.25 395.55L1160.73 541.94" stroke="hsl(8.399999999999977, 84.5%, 73.9%)" stroke-width="1.5"></path><path d="M1150.25 395.55L1244.68 260.8" stroke="hsl(8.399999999999977, 84.5%, 73.9%)" stroke-width="1.5"></path><path d="M1150.25 395.55L999.98 514.98" stroke="hsl(8.399999999999977, 84.5%, 73.9%)" stroke-width="1.5"></path><path d="M1160.73 541.94L1160.73 541.94" stroke="hsl(8.399999999999977, 84.5%, 73.9%)" stroke-width="1.5"></path><path d="M1160.73 541.94L1289.58 529.61" stroke="hsl(8.399999999999977, 84.5%, 73.9%)" stroke-width="1.5"></path><path d="M1160.73 541.94L1101.04 712.02" stroke="hsl(8.399999999999977, 84.5%, 73.9%)" stroke-width="1.5"></path><path d="M1160.73 541.94L1309.28 669.1" stroke="hsl(8.399999999999977, 84.5%, 73.9%)" stroke-width="1.5"></path><path d="M1101.04 712.02L1101.04 712.02" stroke="hsl(8.399999999999977, 84.5%, 73.9%)" stroke-width="1.5"></path><path d="M1283.71 384.03L1283.71 384.03" stroke="hsl(8.399999999999977, 84.5%, 73.9%)" stroke-width="1.5"></path><path d="M1283.71 384.03L1428.15 392.74" stroke="hsl(8.399999999999977, 84.5%, 73.9%)" stroke-width="1.5"></path><path d="M1283.71 384.03L1289.58 529.61" stroke="hsl(8.399999999999977, 84.5%, 73.9%)" stroke-width="1.5"></path><path d="M1283.71 384.03L1399.76 541.52" stroke="hsl(8.399999999999977, 84.5%, 73.9%)" stroke-width="1.5"></path><path d="M1289.58 529.61L1289.58 529.61" stroke="hsl(8.399999999999977, 84.5%, 73.9%)" stroke-width="1.5"></path><path d="M1289.58 529.61L1399.76 541.52" stroke="hsl(8.399999999999977, 84.5%, 73.9%)" stroke-width="1.5"></path><path d="M1309.28 669.1L1309.28 669.1" stroke="hsl(8.399999999999977, 84.5%, 73.9%)" stroke-width="1.5"></path><path d="M1309.28 669.1L1416.54 669.7" stroke="hsl(8.399999999999977, 84.5%, 73.9%)" stroke-width="1.5"></path><path d="M1309.28 669.1L1289.58 529.61" stroke="hsl(8.399999999999977, 84.5%, 73.9%)" stroke-width="1.5"></path><path d="M1309.28 669.1L1399.76 541.52" stroke="hsl(8.399999999999977, 84.5%, 73.9%)" stroke-width="1.5"></path><path d="M1309.28 669.1L1101.04 712.02" stroke="hsl(8.399999999999977, 84.5%, 73.9%)" stroke-width="1.5"></path><path d="M1448.95 65.62L1448.95 65.62" stroke="hsl(8.399999999999977, 84.5%, 73.9%)" stroke-width="1.5"></path><path d="M1448.95 65.62L1435.34 220.88" stroke="hsl(8.399999999999977, 84.5%, 73.9%)" stroke-width="1.5"></path><path d="M1435.34 220.88L1435.34 220.88" stroke="hsl(8.399999999999977, 84.5%, 73.9%)" stroke-width="1.5"></path><path d="M1435.34 220.88L1568.72 201.12" stroke="hsl(8.399999999999977, 84.5%, 73.9%)" stroke-width="1.5"></path><path d="M1435.34 220.88L1428.15 392.74" stroke="hsl(8.399999999999977, 84.5%, 73.9%)" stroke-width="1.5"></path><path d="M1428.15 392.74L1428.15 392.74" stroke="hsl(8.399999999999977, 84.5%, 73.9%)" stroke-width="1.5"></path><path d="M1428.15 392.74L1399.76 541.52" stroke="hsl(8.399999999999977, 84.5%, 73.9%)" stroke-width="1.5"></path><path d="M1399.76 541.52L1399.76 541.52" stroke="hsl(8.399999999999977, 84.5%, 73.9%)" stroke-width="1.5"></path><path d="M1399.76 541.52L1416.54 669.7" stroke="hsl(8.399999999999977, 84.5%, 73.9%)" stroke-width="1.5"></path><path d="M1416.54 669.7L1416.54 669.7" stroke="hsl(8.399999999999977, 84.5%, 73.9%)" stroke-width="1.5"></path><path d="M1416.54 669.7L1558.23 662.4" stroke="hsl(8.399999999999977, 84.5%, 73.9%)" stroke-width="1.5"></path><path d="M1416.54 669.7L1289.58 529.61" stroke="hsl(8.399999999999977, 84.5%, 73.9%)" stroke-width="1.5"></path><path d="M1608.67 -105.09L1608.67 -105.09" stroke="hsl(8.399999999999977, 84.5%, 73.9%)" stroke-width="1.5"></path><path d="M1608.67 -105.09L1448.95 65.62" stroke="hsl(8.399999999999977, 84.5%, 73.9%)" stroke-width="1.5"></path><path d="M1568.72 201.12L1568.72 201.12" stroke="hsl(8.399999999999977, 84.5%, 73.9%)" stroke-width="1.5"></path><path d="M1568.72 201.12L1611.96 371.43" stroke="hsl(8.399999999999977, 84.5%, 73.9%)" stroke-width="1.5"></path><path d="M1568.72 201.12L1448.95 65.62" stroke="hsl(8.399999999999977, 84.5%, 73.9%)" stroke-width="1.5"></path><path d="M1568.72 201.12L1428.15 392.74" stroke="hsl(8.399999999999977, 84.5%, 73.9%)" stroke-width="1.5"></path><path d="M1568.72 201.12L1606.83 489.92" stroke="hsl(8.399999999999977, 84.5%, 73.9%)" stroke-width="1.5"></path><path d="M1611.96 371.43L1611.96 371.43" stroke="hsl(8.399999999999977, 84.5%, 73.9%)" stroke-width="1.5"></path><path d="M1611.96 371.43L1606.83 489.92" stroke="hsl(8.399999999999977, 84.5%, 73.9%)" stroke-width="1.5"></path><path d="M1611.96 371.43L1428.15 392.74" stroke="hsl(8.399999999999977, 84.5%, 73.9%)" stroke-width="1.5"></path><path d="M1606.83 489.92L1606.83 489.92" stroke="hsl(8.399999999999977, 84.5%, 73.9%)" stroke-width="1.5"></path><path d="M1606.83 489.92L1558.23 662.4" stroke="hsl(8.399999999999977, 84.5%, 73.9%)" stroke-width="1.5"></path><path d="M1558.23 662.4L1558.23 662.4" stroke="hsl(8.399999999999977, 84.5%, 73.9%)" stroke-width="1.5"></path><path d="M1558.23 662.4L1399.76 541.52" stroke="hsl(8.399999999999977, 84.5%, 73.9%)" stroke-width="1.5"></path><path d="M1558.23 662.4L1309.28 669.1" stroke="hsl(8.399999999999977, 84.5%, 73.9%)" stroke-width="1.5"></path><path d="M1558.23 662.4L1611.96 371.43" stroke="hsl(8.399999999999977, 84.5%, 73.9%)" stroke-width="1.5"></path><path d="M1558.23 662.4L1428.15 392.74" stroke="hsl(8.399999999999977, 84.5%, 73.9%)" stroke-width="1.5"></path><circle r="25" cx="411.6" cy="547.23" fill="url(#SvgjsRadialGradient1040)"></circle><circle r="25" cx="489.66" cy="704" fill="url(#SvgjsRadialGradient1040)"></circle><circle r="25" cx="838.95" cy="697.96" fill="url(#SvgjsRadialGradient1040)"></circle><circle r="25" cx="1304.02" cy="-47.48" fill="url(#SvgjsRadialGradient1040)"></circle><circle r="25" cx="1273.88" cy="81.21" fill="url(#SvgjsRadialGradient1040)"></circle><circle r="25" cx="1244.68" cy="260.8" fill="url(#SvgjsRadialGradient1040)"></circle><circle r="25" cx="1422.17" cy="-104.33" fill="url(#SvgjsRadialGradient1040)"></circle><circle r="25" cx="1561.8" cy="76.43" fill="url(#SvgjsRadialGradient1040)"></circle><circle r="5" cx="-38.92" cy="528.44" fill="#f7a79a"></circle><circle r="5" cx="-77.2" cy="661.42" fill="#f7a79a"></circle><circle r="5" cx="64.64" cy="502.64" fill="#f7a79a"></circle><circle r="5" cx="204.65" cy="688.79" fill="#f7a79a"></circle><circle r="5" cx="362.18" cy="678.33" fill="#f7a79a"></circle><circle r="5" cx="552.57" cy="514.05" fill="#f7a79a"></circle><circle r="5" cx="646.32" cy="533.51" fill="#f7a79a"></circle><circle r="5" cx="707.42" cy="641.02" fill="#f7a79a"></circle><circle r="5" cx="790.31" cy="377.12" fill="#f7a79a"></circle><circle r="5" cx="835.17" cy="523.21" fill="#f7a79a"></circle><circle r="5" cx="957.95" cy="387.76" fill="#f7a79a"></circle><circle r="5" cx="999.98" cy="514.98" fill="#f7a79a"></circle><circle r="5" cx="981.72" cy="705.2" fill="#f7a79a"></circle><circle r="5" cx="1158.15" cy="90.52" fill="#f7a79a"></circle><circle r="5" cx="1094.45" cy="252.24" fill="#f7a79a"></circle><circle r="5" cx="1150.25" cy="395.55" fill="#f7a79a"></circle><circle r="5" cx="1160.73" cy="541.94" fill="#f7a79a"></circle><circle r="5" cx="1101.04" cy="712.02" fill="#f7a79a"></circle><circle r="5" cx="1283.71" cy="384.03" fill="#f7a79a"></circle><circle r="5" cx="1289.58" cy="529.61" fill="#f7a79a"></circle><circle r="5" cx="1309.28" cy="669.1" fill="#f7a79a"></circle><circle r="5" cx="1448.95" cy="65.62" fill="#f7a79a"></circle><circle r="5" cx="1435.34" cy="220.88" fill="#f7a79a"></circle><circle r="5" cx="1428.15" cy="392.74" fill="#f7a79a"></circle><circle r="5" cx="1399.76" cy="541.52" fill="#f7a79a"></circle><circle r="5" cx="1416.54" cy="669.7" fill="#f7a79a"></circle><circle r="5" cx="1608.67" cy="-105.09" fill="#f7a79a"></circle><circle r="5" cx="1568.72" cy="201.12" fill="#f7a79a"></circle><circle r="5" cx="1611.96" cy="371.43" fill="#f7a79a"></circle><circle r="5" cx="1606.83" cy="489.92" fill="#f7a79a"></circle><circle r="5" cx="1558.23" cy="662.4" fill="#f7a79a"></circle></g><defs><mask id="SvgjsMask1039"><rect width="1440" height="560" fill="#ffffff"></rect></mask><radialGradient id="SvgjsRadialGradient1040"><stop stop-color="#ffffff" offset="0.1"></stop><stop stop-color="rgba(238, 78, 52, 1)" offset="0.2"></stop><stop stop-color="rgba(238, 78, 52, 0)" offset="1"></stop></radialGradient></defs></svg>