<svg xmlns="http://www.w3.org/2000/svg" version="1.1" xmlns:xlink="http://www.w3.org/1999/xlink" xmlns:svgjs="http://svgjs.com/svgjs" width="1440" height="250" preserveAspectRatio="none" viewBox="0 0 1440 250"><g mask="url(&quot;#SvgjsMask1018&quot;)" fill="none"><path d="M22 250L272 0L468.5 0L218.5 250z" fill="url(#SvgjsLinearGradient1019)"></path><path d="M257.6 250L507.6 0L579.6 0L329.6 250z" fill="url(#SvgjsLinearGradient1019)"></path><path d="M476.20000000000005 250L726.2 0L1051.7 0L801.7 250z" fill="url(#SvgjsLinearGradient1019)"></path><path d="M730.8000000000001 250L980.8000000000001 0L1231.3000000000002 0L981.3000000000001 250z" fill="url(#SvgjsLinearGradient1019)"></path><path d="M1437 250L1187 0L941 0L1191 250z" fill="url(#SvgjsLinearGradient1020)"></path><path d="M1180.4 250L930.4000000000001 0L816.4000000000001 0L1066.4 250z" fill="url(#SvgjsLinearGradient1020)"></path><path d="M928.8 250L678.8 0L417.79999999999995 0L667.8 250z" fill="url(#SvgjsLinearGradient1020)"></path><path d="M710.1999999999999 250L460.19999999999993 0L284.69999999999993 0L534.6999999999999 250z" fill="url(#SvgjsLinearGradient1020)"></path><path d="M1213.7103705247073 250L1440 23.710370524707287L1440 250z" fill="url(#SvgjsLinearGradient1019)"></path><path d="M0 250L226.2896294752927 250L 0 23.710370524707287z" fill="url(#SvgjsLinearGradient1020)"></path></g><defs><mask id="SvgjsMask1018"><rect width="1440" height="250" fill="#ffffff"></rect></mask><linearGradient x1="0%" y1="100%" x2="100%" y2="0%" id="SvgjsLinearGradient1019"><stop stop-color="rgba(238, 78, 52, 1)" offset="0"></stop><stop stop-opacity="0" stop-color="rgba(238, 78, 52, 1)" offset="0.66"></stop></linearGradient><linearGradient x1="100%" y1="100%" x2="0%" y2="0%" id="SvgjsLinearGradient1020"><stop stop-color="rgba(238, 78, 52, 1)" offset="0"></stop><stop stop-opacity="0" stop-color="rgba(238, 78, 52, 1)" offset="0.66"></stop></linearGradient></defs></svg>